# xmcd
#
# Track frame offsets:
# 150
# 22047
# 36850
# 59032
# 79709
# 97099
# 118602
# 132359
# 154926
# 174116
# 191106
# 208210
# 221427
# 242730
# 259406
# 277073
# 294475
# 308869
# 325869
# 344207
#
# Disc length: 4767 seconds
#
#
# Revision: 0
# Processed by: cddbd v1.5.2PL0 Copyright (c) Steve Scherf et al.
# Submitted via: FreeRIP 2.942 
#
DISCID=42129d14
DTITLE=As 20 Mais - Zé Ramalho - As 20 Mais
DYEAR=1900
DGENRE=Classicos
TTITLE0=Admiravel Gado Novo
TTITLE1=Misterios da Meia Noite
TTITLE2=Avohai
TTITLE3=Frevo Mulher
TTITLE4=Vila do Sossegado
TTITLE5=Kriptônia
TTITLE6=Garoto de Aluguel (Taxi Boy)
TTITLE7=Eternas Ondas
TTITLE8=Terceira Lâmina
TTITLE9=Beira Mar
TTITLE10=Cidadão
TTITLE11=Entre a Serpente e a Estrela
TTITLE12=Chão de  Giz
TTITLE13=Banquete de Signos
TTITLE14=Galope Rasante
TTITLE15=Mulher Nova Bonita e Carinhosa
TTITLE16=Pepitas de Fogo
TTITLE17=Batendo na Porta do Céu
TTITLE18=Um Indio
TTITLE19=Kamikaze
EXTD=
EXTT0=
EXTT1=
EXTT2=
EXTT3=
EXTT4=
EXTT5=
EXTT6=
EXTT7=
EXTT8=
EXTT9=
EXTT10=
EXTT11=
EXTT12=
EXTT13=
EXTT14=
EXTT15=
EXTT16=
EXTT17=
EXTT18=
EXTT19=
PLAYORDER=
